<?xml version="1.0" encoding="utf-8"?>
<!-- Generator: Adobe Illustrator 23.1.1, SVG Export Plug-In . SVG Version: 6.00 Build 0)  -->
<svg version="1.1" id="Capa_1" xmlns="http://www.w3.org/2000/svg" xmlns:xlink="http://www.w3.org/1999/xlink" x="0px" y="0px"
	 viewBox="0 0 206.7 206.7" style="enable-background:new 0 0 206.7 206.7;" xml:space="preserve">
<style type="text/css">
	.st0{fill:#180C00;}
	.st1{fill:#FDCC9B;}
	.st2{fill:#FCBC85;}
	.st3{fill:#3B2519;}
	.st4{fill:#684B37;}
	.st5{fill:#F7945E;}
	.st6{fill:#F9AA8D;}
	.st7{fill:#FAFACB;}
	.st8{fill:#D5B895;}
	.st9{fill:#251900;}
</style>
<path class="st0" d="M103,43.5l-1.4,145.4c0,0,55.6,19.9,85.5-12.6c0.6-0.6-17.7-4.6-12.7-24.9c6.3-25.8,2.8-67.6,0-90.4
	C171.6,38.1,103,43.5,103,43.5z"/>
<g>
	<path class="st0" d="M103.5,43.5l1.4,145.4c0,0-55.6,19.9-85.5-12.6c-0.6-0.6,17.7-4.6,12.7-24.9c-6.3-25.8-2.8-67.6,0-90.4
		C34.8,38.1,103.5,43.5,103.5,43.5z"/>
	<g>
		<g>
			<rect x="88.8" y="156.4" class="st1" width="29.4" height="32.9"/>
			<path class="st2" d="M88.8,160.3c0,0,12.4,7.9,29.4,6.1v-9.9H88.8V160.3z"/>
			<ellipse class="st2" cx="46.4" cy="105.4" rx="14.3" ry="16.4"/>
			<ellipse class="st2" cx="160.6" cy="105.4" rx="14.3" ry="16.4"/>
			<path class="st1" d="M160.5,74.1c0-24.1-17.6-41.7-57-41.7c-39.4,0-57,17.6-57,41.7c0,24.1-4.1,87.6,57,87.6
				C164.6,161.7,160.5,98.2,160.5,74.1z"/>
			<g>
				<g>
					<ellipse class="st3" cx="75.7" cy="104.4" rx="6.2" ry="6.8"/>
				</g>
				<path class="st4" d="M65.8,89.9c2.9,1.1,7.6-3.8,18.3,0.5c2,0.8,3.1-6.7-8.4-6.7C65.8,83.7,64.1,89.2,65.8,89.9z"/>
				<g>
					<ellipse class="st3" cx="132" cy="104.4" rx="6.2" ry="6.8"/>
				</g>
				<path class="st4" d="M141.1,89.9c-2.9,1.1-7.6-3.8-18.3,0.5c-2,0.8-3.1-6.7,8.4-6.7C141.1,83.7,142.9,89.2,141.1,89.9z"/>
			</g>
			<path class="st5" d="M103.2,137c-9.7,0-12.3-4.2-12.3-3.2c0,1-0.4,5.1,12.3,5.1s12.3-4.3,12.3-5.3
				C115.5,132.7,112.9,137,103.2,137z"/>
		</g>
		<circle class="st6" cx="67.8" cy="123" r="8.4"/>
		<circle class="st6" cx="140.2" cy="123" r="8.4"/>
	</g>
	<path class="st7" d="M103.5,169.6v37H39.1C39.1,191.7,69.7,169.6,103.5,169.6z"/>
	<path class="st7" d="M103.5,169.6v37h64.4C167.9,191.7,137.3,169.6,103.5,169.6z"/>
	<path class="st7" d="M103.5,205v-35.4c-9.4,0-18.6,1.8-26.9,4.5L103.5,205z"/>
	<path class="st7" d="M103.5,205v-35.4c9.4,0,18.6,1.8,26.9,4.5L103.5,205z"/>
	<path class="st8" d="M103.5,169.6c-6.8,0-13.5,0.9-19.9,2.5c0.9,5.5,4.6,16.8,19.9,16.8c15.3,0,19-11.3,19.9-16.8
		C117,170.6,110.3,169.6,103.5,169.6z"/>
	<path class="st1" d="M88.8,170.9c0,0,0,13.2,14.7,13.2c14.7,0,14.7-13.2,14.7-13.2S102.9,165.4,88.8,170.9z"/>
	<path class="st9" d="M103.5,0c-66.1,0-75,57.7-75,100.3c0,42.6,22,67.3,39.2,74.2c0,0-27.5-48.7-14-93.8c11.1-36.9,49.7-26,49.7-26
		s38.6-10.9,49.7,26c13.5,45.1-14,93.8-14,93.8c17.2-6.9,39.2-31.6,39.2-74.2C178.4,57.7,169.6,0,103.5,0z"/>
	<path class="st9" d="M121.5,53.5L81.9,70.8c-21,6.7-33.1,24.3-31.8,39.3l-7.3-33.5L56,50.1l37.7-19.4l35.6,1.6L146.2,47l14.3,17.8
		l10.1,11.7l-4.9,36.1l-10.3,12.3C155.5,125.1,160.5,67.3,121.5,53.5z"/>
	<path class="st0" d="M229.5,186.5"/>
</g>
</svg>
