<svg width="100" height="135" viewBox="0 0 100 135" fill="none" xmlns="http://www.w3.org/2000/svg">
<path d="M49.6773 28.3297L50.5891 123.022C50.5891 123.022 29.397 130 7.89697 120.5C7.50622 120.109 5.15329 113.221 1.897 100C-2.20592 83.1976 1.35403 54.5754 3.17755 39.7267C4.93594 24.8129 49.6773 28.3297 49.6773 28.3297Z" fill="#180C00"/>
<path d="M49.8088 28.3612L48.897 123.054C48.897 123.054 70.0891 130.031 91.5891 120.531C91.9799 120.141 94.3328 113.252 97.5891 100.031C101.692 83.2291 98.1321 54.6068 96.3085 39.7582C94.5501 24.8444 49.8088 28.3612 49.8088 28.3612Z" fill="#180C00"/>
<path d="M59.2502 101.857H40.1033V123.283H59.2502V101.857Z" fill="#FDCC9B"/>
<path d="M40.1033 104.396C40.1033 104.396 48.1789 109.541 59.2502 108.369V101.922H40.1033V104.396Z" fill="#FCBC85"/>
<path d="M12.4902 79.3231C17.6336 79.3231 21.8032 74.5413 21.8032 68.6425C21.8032 62.7438 17.6336 57.9619 12.4902 57.9619C7.34681 57.9619 3.17725 62.7438 3.17725 68.6425C3.17725 74.5413 7.34681 79.3231 12.4902 79.3231Z" fill="#FCBC85"/>
<path d="M86.8635 79.3231C92.0069 79.3231 96.1765 74.5413 96.1765 68.6425C96.1765 62.7438 92.0069 57.9619 86.8635 57.9619C81.7201 57.9619 77.5505 62.7438 77.5505 68.6425C77.5505 74.5413 81.7201 79.3231 86.8635 79.3231Z" fill="#FCBC85"/>
<path d="M86.7983 48.2581C86.7983 32.5628 75.3361 21.1007 49.6766 21.1007C24.0171 21.1007 12.555 32.5628 12.555 48.2581C12.555 63.9534 9.88481 105.308 49.6766 105.308C89.4684 105.308 86.7983 63.9534 86.7983 48.2581Z" fill="#FDCC9B"/>
<path d="M49.4819 89.2222C43.1647 89.2222 42 86.5 41.4714 87.1382C41.4714 87.7894 43.5 90 49.4819 90.4596C55 90.4596 57.4923 87.6592 57.4923 87.0079C57.4923 86.4218 55.7991 89.2222 49.4819 89.2222Z" fill="#F7945E"/>
<path d="M49.6774 110.453V134.55H7.73645C7.73645 124.846 27.6649 110.453 49.6774 110.453Z" fill="#C2C1B8"/>
<path d="M49.677 110.453V134.55H91.6179C91.6179 124.846 71.6895 110.453 49.677 110.453Z" fill="#C2C1B8"/>
<path d="M49.677 133.508V110.453C43.5552 110.453 37.5636 111.625 32.1582 113.384L49.677 133.508Z" fill="#C2C1B8"/>
<path d="M49.677 133.508V110.453C55.7988 110.453 61.7904 111.625 67.1958 113.384L49.677 133.508Z" fill="#C2C1B8"/>
<path d="M49.6773 110.453C45.2488 110.453 40.8853 111.039 36.7173 112.081C37.3034 115.663 39.7131 123.022 49.6773 123.022C59.6415 123.022 62.0512 115.663 62.6373 112.081C58.4693 111.104 54.1058 110.453 49.6773 110.453Z" fill="#8A8875"/>
<path d="M40.104 111.3C40.104 111.3 40.104 119.896 49.6775 119.896C59.251 119.896 59.251 111.3 59.251 111.3C59.251 111.3 49.2867 107.718 40.104 111.3Z" fill="#FDCC9B"/>
<path d="M49.677 0C6.62895 0 0.832764 37.5775 0.832764 65.3211C0.832764 93.0646 15.1604 109.151 26.362 113.644C26.362 113.644 8.45247 81.9281 17.2444 52.5564C24.4734 28.5251 49.6119 35.6238 49.6119 35.6238C49.6119 35.6238 74.7504 28.5251 81.9794 52.5564C90.7713 81.9281 72.8618 113.644 72.8618 113.644C84.0634 109.151 98.3911 93.0646 98.3911 65.3211C98.4562 37.5775 92.7251 0 49.677 0Z" fill="#251900"/>
<path d="M61.3998 34.8423L35.61 46.1091C21.9336 50.4725 14.0534 61.9346 14.9 71.7035L10.1459 49.8863L18.7425 32.628L43.2949 19.9937L66.4796 21.0357L77.4858 30.6091L86.7988 42.2015L93.3765 49.8212L90.1854 73.3316L83.4774 81.3421C83.5425 81.4723 86.7988 43.8297 61.3998 34.8423Z" fill="#251900"/>
<path d="M85.8972 68.2222C84.8972 67.7223 82.8972 68.2222 82.8972 68.2222H70.8972V83.2222H80.8972L82.8972 81.7222C82.8972 81.7222 83.8972 81.722 84.8972 81.222C85.8972 80.722 86.3972 80.722 87.3972 79.222C88.3972 77.722 88.3972 76.722 88.3972 76.722V74.222C88.3972 74.222 88.3972 72.2219 87.8972 70.722C87.3972 69.2222 86.8972 68.7221 85.8972 68.2222Z" fill="#FDCC9B"/>
<path d="M12.3972 68.2222C13.3972 67.7223 15.3972 68.2222 15.3972 68.2222H27.3972V83.2222H17.3972L15.3972 81.7222C15.3972 81.7222 14.3972 81.722 13.3972 81.222C12.3972 80.722 11.8972 80.722 10.8972 79.222C9.89722 77.722 9.89722 76.722 9.89722 76.722V74.222C9.89722 74.222 9.89722 72.2219 10.3972 70.722C10.8972 69.2222 11.3972 68.7221 12.3972 68.2222Z" fill="#FDCC9B"/>
<path d="M26.4269 85.5751C29.4482 85.5751 31.8974 83.1259 31.8974 80.1046C31.8974 77.0833 29.4482 74.634 26.4269 74.634C23.4056 74.634 20.9563 77.0833 20.9563 80.1046C20.9563 83.1259 23.4056 85.5751 26.4269 85.5751Z" fill="#F9AA8D"/>
<path d="M73.5785 85.5751C76.5998 85.5751 79.049 83.1259 79.049 80.1046C79.049 77.0833 76.5998 74.634 73.5785 74.634C70.5572 74.634 68.1079 77.0833 68.1079 80.1046C68.1079 83.1259 70.5572 85.5751 73.5785 85.5751Z" fill="#F9AA8D"/>
<path d="M31.5725 72.4198C33.8025 72.4198 35.6103 70.4371 35.6103 67.9913C35.6103 65.5455 33.8025 63.5627 31.5725 63.5627C29.3424 63.5627 27.5347 65.5455 27.5347 67.9913C27.5347 70.4371 29.3424 72.4198 31.5725 72.4198Z" fill="#3B2519"/>
<path d="M68.2387 72.4198C70.4687 72.4198 72.2765 70.4371 72.2765 67.9913C72.2765 65.5455 70.4687 63.5627 68.2387 63.5627C66.0087 63.5627 64.2009 65.5455 64.2009 67.9913C64.2009 70.4371 66.0087 72.4198 68.2387 72.4198Z" fill="#3B2519"/>
<path d="M61.4059 56.5378C63.2945 57.2542 67.3217 55.5 73.3239 56.8634C74.6264 57.3844 75.4895 54.5 68 54.5C61.5525 54.5 60.2336 56.0819 61.4059 56.5378Z" fill="#251900"/>
<path d="M37.785 57.0378C35.8964 57.7542 31.8693 56 25.867 57.3634C24.5645 57.8844 23.7015 55 31.1909 55C37.6384 55 38.9573 56.5819 37.785 57.0378Z" fill="#251900"/>
</svg>
