<svg id="Layer_1" data-name="Layer 1" xmlns="http://www.w3.org/2000/svg" viewBox="0 0 99.49 134.55"><defs><style>.cls-1{fill:#180c00;}.cls-2{fill:#fdcc9b;}.cls-3{fill:#fcbc85;}.cls-4{fill:#f7945e;}.cls-5{fill:#c2c1b8;}.cls-6{fill:#8a8875;}.cls-7{fill:#251900;}.cls-8{fill:#f9aa8d;}.cls-9{fill:#3b2519;}</style></defs><title>avataaars</title><path class="cls-1" d="M49.68,28.33,50.59,123S29.4,130,7.9,120.5c-.39-.39-2.75-7.28-6-20.5-4.11-16.8-.55-45.42,1.28-60.27S49.68,28.33,49.68,28.33Z" transform="translate(0)"/><path class="cls-1" d="M49.81,28.36l-.91,94.69s21.19,7,42.69-2.52c.39-.39,2.74-7.28,6-20.5,4.1-16.8.54-45.42-1.28-60.27S49.81,28.36,49.81,28.36Z" transform="translate(0)"/><path class="cls-2" d="M59.25,101.86H40.1v21.42H59.25Z" transform="translate(0)"/><path class="cls-3" d="M40.1,104.4a32.25,32.25,0,0,0,19.15,4v-6.45H40.1Z" transform="translate(0)"/><path class="cls-3" d="M12.49,79.32c5.14,0,9.31-4.78,9.31-10.68S17.63,58,12.49,58,3.18,62.74,3.18,68.64,7.35,79.32,12.49,79.32Z" transform="translate(0)"/><path class="cls-3" d="M86.86,79.32c5.15,0,9.32-4.78,9.32-10.68S92,58,86.86,58s-9.31,4.78-9.31,10.68S81.72,79.32,86.86,79.32Z" transform="translate(0)"/><path class="cls-2" d="M86.8,48.26c0-15.7-11.46-27.16-37.12-27.16S12.56,32.56,12.56,48.26s-2.68,57.05,37.12,57.05S86.8,64,86.8,48.26Z" transform="translate(0)"/><path class="cls-4" d="M49.48,89.22c-6.32,0-7.48-2.72-8-2.08,0,.65,2,2.86,8,3.32,5.52,0,8-2.8,8-3.45S55.8,89.22,49.48,89.22Z" transform="translate(0)"/><path class="cls-5" d="M49.68,110.45v24.1H7.74C7.74,124.85,27.66,110.45,49.68,110.45Z" transform="translate(0)"/><path class="cls-5" d="M49.68,110.45v24.1H91.62C91.62,124.85,71.69,110.45,49.68,110.45Z" transform="translate(0)"/><path class="cls-5" d="M49.68,133.51V110.45a57,57,0,0,0-17.52,2.93Z" transform="translate(0)"/><path class="cls-5" d="M49.68,133.51V110.45a57.09,57.09,0,0,1,17.52,2.93Z" transform="translate(0)"/><path class="cls-6" d="M49.68,110.45a53.63,53.63,0,0,0-13,1.63c.58,3.58,3,10.94,13,10.94s12.37-7.36,13-10.94A56.79,56.79,0,0,0,49.68,110.45Z" transform="translate(0)"/><path class="cls-2" d="M40.1,111.3s0,8.6,9.58,8.6,9.57-8.6,9.57-8.6S49.29,107.72,40.1,111.3Z" transform="translate(0)"/><path class="cls-7" d="M49.68,0C6.63,0,.83,37.58.83,65.32s14.33,43.83,25.53,48.32c0,0-17.91-31.71-9.12-61.08,7.23-24,32.37-16.94,32.37-16.94S74.75,28.53,82,52.56c8.79,29.37-9.12,61.08-9.12,61.08,11.2-4.49,25.53-20.58,25.53-48.32S92.73,0,49.68,0Z" transform="translate(0)"/><path class="cls-7" d="M61.4,34.84,35.61,46.11C21.93,50.47,14.05,61.93,14.9,71.7L10.15,49.89l8.59-17.26L43.29,20,66.48,21l11,9.57L86.8,42.2l6.58,7.62L90.19,73.33l-6.71,8C83.54,81.47,86.8,43.83,61.4,34.84Z" transform="translate(0)"/><path class="cls-2" d="M85.9,68.22a5.73,5.73,0,0,0-3,0h-12v15h10l2-1.5a5,5,0,0,0,2-.5,4.43,4.43,0,0,0,2.5-2,5,5,0,0,0,1-2.5v-2.5a13.19,13.19,0,0,0-.5-3.5A3.52,3.52,0,0,0,85.9,68.22Z" transform="translate(0)"/><path class="cls-2" d="M12.4,68.22a5.73,5.73,0,0,1,3,0h12v15h-10l-2-1.5a5,5,0,0,1-2-.5,4.43,4.43,0,0,1-2.5-2,5,5,0,0,1-1-2.5v-2.5a13.19,13.19,0,0,1,.5-3.5A3.52,3.52,0,0,1,12.4,68.22Z" transform="translate(0)"/><path class="cls-8" d="M26.43,85.58A5.48,5.48,0,1,0,21,80.1,5.47,5.47,0,0,0,26.43,85.58Z" transform="translate(0)"/><path class="cls-8" d="M73.58,85.58a5.48,5.48,0,1,0-5.47-5.48A5.47,5.47,0,0,0,73.58,85.58Z" transform="translate(0)"/><path class="cls-9" d="M31.57,72.42a4.45,4.45,0,0,0,0-8.86,4.45,4.45,0,0,0,0,8.86Z" transform="translate(0)"/><path class="cls-9" d="M68.24,72.42a4.45,4.45,0,1,0-4-4.43A4.25,4.25,0,0,0,68.24,72.42Z" transform="translate(0)"/><path class="cls-7" d="M61.41,56.54c1.88.71,5.91-1,11.91.32,1.31.52,2.17-2.36-5.32-2.36C61.55,54.5,60.23,56.08,61.41,56.54Z" transform="translate(0)"/><path class="cls-7" d="M37.78,57c-1.88.71-5.91-1-11.91.32C24.56,57.88,23.7,55,31.19,55,37.64,55,39,56.58,37.78,57Z" transform="translate(0)"/></svg>